<svg width="23" height="31" viewBox="0 0 23 31" fill="none" xmlns="http://www.w3.org/2000/svg">
<path d="M13.9244 0.704346H4C3.00544 0.704346 2.05161 1.09943 1.34835 1.8027C0.645088 2.50596 0.25 3.45978 0.25 4.45435V26.9543C0.25 27.9489 0.645088 28.9027 1.34835 29.606C2.05161 30.3093 3.00544 30.7043 4 30.7043H19C19.9946 30.7043 20.9484 30.3093 21.6516 29.606C22.3549 28.9027 22.75 27.9489 22.75 26.9543V9.52997C22.7499 9.03273 22.5523 8.55589 22.2006 8.20435L15.25 1.25372C14.8985 0.902066 14.4216 0.704452 13.9244 0.704346V0.704346ZM14.3125 7.26685V3.51685L19.9375 9.14185H16.1875C15.6902 9.14185 15.2133 8.9443 14.8617 8.59267C14.51 8.24104 14.3125 7.76413 14.3125 7.26685ZM8.6875 11.0168V12.2056L9.71687 11.6112C9.82353 11.5487 9.94151 11.5079 10.064 11.4911C10.1865 11.4744 10.3111 11.482 10.4306 11.5136C10.5502 11.5452 10.6623 11.6002 10.7605 11.6753C10.8587 11.7504 10.9411 11.8442 11.0029 11.9512C11.0647 12.0583 11.1048 12.1765 11.1207 12.2991C11.1366 12.4218 11.1282 12.5463 11.0958 12.6656C11.0634 12.7849 11.0077 12.8967 10.9319 12.9944C10.8562 13.0921 10.7619 13.1739 10.6544 13.235L9.625 13.8293L10.6544 14.4237C10.7619 14.4848 10.8562 14.5666 10.9319 14.6643C11.0077 14.762 11.0634 14.8738 11.0958 14.9931C11.1282 15.1124 11.1366 15.2369 11.1207 15.3595C11.1048 15.4821 11.0647 15.6004 11.0029 15.7075C10.9411 15.8145 10.8587 15.9083 10.7605 15.9834C10.6623 16.0585 10.5502 16.1135 10.4306 16.1451C10.3111 16.1767 10.1865 16.1843 10.064 16.1676C9.94151 16.1508 9.82353 16.11 9.71687 16.0475L8.6875 15.4531V16.6418C8.6875 16.8905 8.58873 17.1289 8.41291 17.3048C8.2371 17.4806 7.99864 17.5793 7.75 17.5793C7.50136 17.5793 7.2629 17.4806 7.08709 17.3048C6.91127 17.1289 6.8125 16.8905 6.8125 16.6418V15.4531L5.78313 16.0475C5.67647 16.11 5.55849 16.1508 5.43599 16.1676C5.31349 16.1843 5.18889 16.1767 5.06936 16.1451C4.94983 16.1135 4.83773 16.0585 4.73952 15.9834C4.64131 15.9083 4.55892 15.8145 4.4971 15.7075C4.43528 15.6004 4.39525 15.4821 4.37931 15.3595C4.36337 15.2369 4.37185 15.1124 4.40424 14.9931C4.43664 14.8738 4.49231 14.762 4.56806 14.6643C4.64381 14.5666 4.73815 14.4848 4.84563 14.4237L5.875 13.8293L4.84563 13.235C4.63206 13.1098 4.47668 12.9052 4.4134 12.6658C4.35013 12.4265 4.38408 12.1718 4.50787 11.9574C4.63165 11.7431 4.83521 11.5863 5.07413 11.5215C5.31304 11.4566 5.56791 11.4889 5.78313 11.6112L6.8125 12.2056V11.0168C6.8125 10.7682 6.91127 10.5297 7.08709 10.3539C7.2629 10.1781 7.50136 10.0793 7.75 10.0793C7.99864 10.0793 8.2371 10.1781 8.41291 10.3539C8.58873 10.5297 8.6875 10.7682 8.6875 11.0168V11.0168ZM4.9375 19.4543H14.3125C14.5611 19.4543 14.7996 19.5531 14.9754 19.7289C15.1512 19.9047 15.25 20.1432 15.25 20.3918C15.25 20.6405 15.1512 20.8789 14.9754 21.0548C14.7996 21.2306 14.5611 21.3293 14.3125 21.3293H4.9375C4.68886 21.3293 4.4504 21.2306 4.27459 21.0548C4.09877 20.8789 4 20.6405 4 20.3918C4 20.1432 4.09877 19.9047 4.27459 19.7289C4.4504 19.5531 4.68886 19.4543 4.9375 19.4543V19.4543ZM4.9375 23.2043H14.3125C14.5611 23.2043 14.7996 23.3031 14.9754 23.4789C15.1512 23.6547 15.25 23.8932 15.25 24.1418C15.25 24.3905 15.1512 24.6289 14.9754 24.8048C14.7996 24.9806 14.5611 25.0793 14.3125 25.0793H4.9375C4.68886 25.0793 4.4504 24.9806 4.27459 24.8048C4.09877 24.6289 4 24.3905 4 24.1418C4 23.8932 4.09877 23.6547 4.27459 23.4789C4.4504 23.3031 4.68886 23.2043 4.9375 23.2043V23.2043Z" fill="black"/>
</svg>
