<svg width="23" height="24" viewBox="0 0 23 24" fill="none" xmlns="http://www.w3.org/2000/svg">
<path d="M15.9532 8.11093V14.4749C15.9532 14.6742 15.8741 14.8652 15.7332 15.0061C15.5923 15.147 15.4012 15.2262 15.2019 15.2262C15.0027 15.2262 14.8116 15.147 14.6707 15.0061C14.5298 14.8652 14.4506 14.6742 14.4506 14.4749L14.4515 9.92289L7.95495 16.4194C7.8143 16.5601 7.62353 16.6391 7.42462 16.6391C7.22571 16.6391 7.03494 16.5601 6.89429 16.4194C6.75364 16.2788 6.67462 16.088 6.67462 15.8891C6.67462 15.6902 6.75364 15.4994 6.89429 15.3588L13.3908 8.86223L8.83839 8.86091C8.63913 8.86091 8.44804 8.78175 8.30714 8.64086C8.16625 8.49996 8.08709 8.30886 8.08709 8.10961C8.08709 7.91035 8.16625 7.71925 8.30714 7.57836C8.44804 7.43746 8.63913 7.35831 8.83839 7.35831H15.2024C15.3011 7.35819 15.399 7.37759 15.4902 7.4154C15.5815 7.4532 15.6644 7.50866 15.7342 7.5786C15.8039 7.64853 15.8592 7.73156 15.8968 7.82291C15.9344 7.91427 15.9536 8.01215 15.9532 8.11093Z" fill="#D3D6D3"/>
</svg>
