<svg width="17" height="19" viewBox="0 0 17 19" fill="none" xmlns="http://www.w3.org/2000/svg">
<path d="M-2 9.5H-1M-1 9.5H15M-1 9.5V11.5C-1 12.638 -0.417 14.748 1.745 15.341M15 9.5C15.2652 9.5 15.5196 9.39464 15.7071 9.20711C15.8946 9.01957 16 8.76522 16 8.5V4.5C16 3.5 15.4 1.5 13 1.5C10.6 1.5 10 3.5 10 4.5M15 9.5V11.5C15 12.638 14.417 14.748 12.255 15.341M10 4.5H8M10 4.5H12M12.255 15.341C11.8457 15.4502 11.4236 15.5037 11 15.5H3C2.532 15.5 2.115 15.443 1.745 15.341M12.255 15.341L13 17.5M1.745 15.341L1 17.5" stroke="#27563A" stroke-width="1.2" stroke-linecap="round" stroke-linejoin="round"/>
</svg>
