<svg width="17" height="18" viewBox="0 0 17 18" fill="none" xmlns="http://www.w3.org/2000/svg">
<path d="M1.75 0.5H12.25C12.9503 0.499965 13.6242 0.767092 14.1343 1.24689C14.6444 1.72669 14.9522 2.38302 14.995 3.082L15 3.25V6.604C15.5451 6.75874 16.0291 7.07796 16.386 7.51806C16.7429 7.95817 16.9552 8.49771 16.994 9.063L17 9.25V16.75C16.9999 16.94 16.9278 17.1229 16.798 17.2618C16.6683 17.4006 16.4907 17.4851 16.3011 17.498C16.1115 17.511 15.9241 17.4515 15.7767 17.3316C15.6293 17.2117 15.5329 17.0402 15.507 16.852L15.5 16.75V14.5H-1.5V16.75C-1.50001 16.9312 -1.56564 17.1063 -1.68477 17.2429C-1.80389 17.3795 -1.96845 17.4684 -2.148 17.493L-2.25 17.5C-2.43124 17.5 -2.60634 17.4344 -2.74293 17.3152C-2.87952 17.1961 -2.96835 17.0316 -2.993 16.852L-3 16.75V9.25C-3 7.991 -2.154 6.93 -1 6.603V3.25C-1.00003 2.54971 -0.732908 1.87579 -0.253107 1.3657C0.226694 0.855612 0.883021 0.547781 1.582 0.505L1.75 0.5ZM14.25 8H-0.25C-0.559458 7.99986 -0.857968 8.11451 -1.08777 8.32177C-1.31756 8.52903 -1.46231 8.81417 -1.494 9.122L-1.5 9.25V13H15.5V9.25C15.4999 8.94071 15.3851 8.64245 15.1779 8.41286C14.9707 8.18328 14.6857 8.03867 14.378 8.007L14.25 8ZM12.25 2H1.75C1.44054 1.99986 1.14203 2.11451 0.912234 2.32177C0.682437 2.52903 0.537689 2.81417 0.506 3.122L0.5 3.25V6.5H2C2 6.23478 2.10536 5.98043 2.29289 5.79289C2.48043 5.60536 2.73478 5.5 3 5.5H5C5.24493 5.50003 5.48134 5.58996 5.66437 5.75272C5.84741 5.91547 5.96434 6.13975 5.993 6.383L6 6.5H8C8 6.23478 8.10536 5.98043 8.29289 5.79289C8.48043 5.60536 8.73478 5.5 9 5.5H11C11.2449 5.50003 11.4813 5.58996 11.6644 5.75272C11.8474 5.91547 11.9643 6.13975 11.993 6.383L12 6.5H13.5V3.25C13.5001 2.94054 13.3855 2.64203 13.1782 2.41223C12.971 2.18244 12.6858 2.03769 12.378 2.006L12.25 2Z" fill="#27563A"/>
</svg>
