<svg width="41" height="40" viewBox="0 0 41 40" fill="none" xmlns="http://www.w3.org/2000/svg">
<path d="M32.9719 24.3054V11.75L24.3611 5.72205L15.7498 11.75V16.1666H12.9719V10.3612L24.3611 2.22205L35.7498 10.3612V24.3054H32.9719ZM25.1944 13.6112H26.8611V11.9445H25.1944V13.6112ZM21.8611 13.6112H23.5278V11.9445H21.8611V13.6112ZM25.1944 16.9445H26.8611V15.2779H25.1944V16.9445ZM21.8611 16.9445H23.5278V15.2779H21.8611V16.9445ZM11.7219 31.3887L24.1111 34.9445L34.3053 31.75C34.2591 31.2964 34.0486 30.9144 33.6736 30.6041C33.2986 30.2939 32.8611 30.1387 32.3611 30.1387H23.7498C23.2034 30.1387 22.7128 30.1064 22.2778 30.0416C21.8425 29.9769 21.4072 29.8704 20.9719 29.722L17.0136 28.4862L17.8469 25.7083L21.5832 26.972C21.9443 27.0926 22.3378 27.1852 22.7636 27.25C23.1897 27.3147 23.7129 27.3518 24.3332 27.3612H25.8886C25.8886 26.8704 25.7289 26.4351 25.4094 26.0554C25.09 25.6759 24.7034 25.3982 24.2498 25.222L14.9444 21.722H11.7219V31.3887ZM2.4165 36.6666V18.9445H14.9165C15.0801 18.9445 15.2437 18.9607 15.4073 18.9929C15.5709 19.0254 15.7268 19.0694 15.8748 19.125L25.1944 22.6112C26.2036 22.9815 27.0484 23.5926 27.729 24.4445C28.4096 25.2962 28.7498 26.2684 28.7498 27.3612H32.3611C33.7653 27.3612 34.9589 27.8565 35.9419 28.847C36.925 29.8379 37.4165 31.0555 37.4165 32.5V33.7779L24.2778 37.8333L11.7219 34.2779V36.6666H2.4165ZM5.19442 33.8887H8.9165V21.722H5.19442V33.8887Z" fill="black"/>
</svg>
