<svg width="41" height="40" viewBox="0 0 41 40" fill="none" xmlns="http://www.w3.org/2000/svg">
<path d="M13.5553 29.7221H26.9444V26.9446H13.5553V29.7221ZM13.5553 22.778H26.9444V20H13.5553V22.778ZM9.69442 36.6667C8.94442 36.6667 8.29387 36.3913 7.74275 35.8405C7.19192 35.2893 6.9165 34.6388 6.9165 33.8888V6.11129C6.9165 5.36129 7.19192 4.71074 7.74275 4.15962C8.29387 3.60879 8.94442 3.33337 9.69442 3.33337H24.1665L33.5832 12.75V33.8888C33.5832 34.6388 33.3078 35.2893 32.7569 35.8405C32.2058 36.3913 31.5553 36.6667 30.8053 36.6667H9.69442ZM22.7778 14.0555V6.11129H9.69442V33.8888H30.8053V14.0555H22.7778Z" fill="black"/>
</svg>
