<svg width="32" height="31" viewBox="0 0 32 31" fill="none" xmlns="http://www.w3.org/2000/svg">
<path d="M16.654 1.54568C16.2737 1.16549 15.758 0.951904 15.2202 0.951904C14.6825 0.951904 14.1667 1.16549 13.7864 1.54568L0.306161 15.0239C0.211882 15.1182 0.137097 15.2301 0.0860735 15.3533C0.0350503 15.4765 0.00878906 15.6085 0.00878906 15.7418C0.00878906 15.8751 0.0350503 16.0072 0.0860735 16.1303C0.137097 16.2535 0.211882 16.3655 0.306161 16.4597C0.496565 16.6501 0.754808 16.7571 1.02408 16.7571C1.15741 16.7571 1.28943 16.7308 1.41261 16.6798C1.53579 16.6288 1.64772 16.554 1.742 16.4597L15.2202 2.97949L28.6984 16.4597C28.8888 16.6501 29.1471 16.7571 29.4163 16.7571C29.6856 16.7571 29.9439 16.6501 30.1343 16.4597C30.3247 16.2693 30.4316 16.0111 30.4316 15.7418C30.4316 15.4725 30.3247 15.2143 30.1343 15.0239L25.3603 10.252V3.5737C25.3603 3.30477 25.2535 3.04685 25.0633 2.85669C24.8731 2.66652 24.6152 2.55969 24.3463 2.55969H22.3183C22.0493 2.55969 21.7914 2.66652 21.6013 2.85669C21.4111 3.04685 21.3043 3.30477 21.3043 3.5737V6.19593L16.654 1.54568Z" fill="black"/>
<path d="M15.2201 5.18188L24.7761 14.7379C23.0888 14.6582 21.4125 15.0484 19.9338 15.8649C18.4551 16.6815 17.232 17.8925 16.4008 19.363C15.5696 20.8335 15.1628 22.5059 15.2257 24.1939C15.2887 25.8819 15.8189 27.5194 16.7574 28.9239H6.09403C5.28723 28.9239 4.51348 28.6034 3.94299 28.0329C3.3725 27.4624 3.052 26.6887 3.052 25.8819V17.35L15.2201 5.18188Z" fill="black"/>
<path d="M24.3464 30.9519C26.2289 30.9519 28.0343 30.204 29.3654 28.8729C30.6966 27.5417 31.4444 25.7363 31.4444 23.8538C31.4444 21.9713 30.6966 20.1659 29.3654 18.8347C28.0343 17.5036 26.2289 16.7557 24.3464 16.7557C22.4638 16.7557 20.6584 17.5036 19.3273 18.8347C17.9961 20.1659 17.2483 21.9713 17.2483 23.8538C17.2483 25.7363 17.9961 27.5417 19.3273 28.8729C20.6584 30.204 22.4638 30.9519 24.3464 30.9519ZM27.7514 21.84L25.044 26.3543C24.925 26.5527 24.7624 26.7213 24.5684 26.8473C24.3745 26.9733 24.1544 27.0535 23.9248 27.0816C23.6953 27.1098 23.4623 27.0852 23.2437 27.0098C23.025 26.9344 22.8265 26.8101 22.6631 26.6464L21.0934 25.0787C20.9033 24.8883 20.7966 24.6302 20.7968 24.3611C20.7969 24.092 20.904 23.834 21.0944 23.6439C21.2848 23.4538 21.543 23.3471 21.8121 23.3472C22.0811 23.3474 22.3391 23.4545 22.5293 23.6449L23.6386 24.7542L26.0114 20.7976C26.0798 20.6833 26.1701 20.5837 26.277 20.5043C26.384 20.4249 26.5055 20.3674 26.6347 20.335C26.7639 20.3026 26.8982 20.296 27.03 20.3155C27.1617 20.335 27.2883 20.3803 27.4026 20.4488C27.5168 20.5172 27.6165 20.6075 27.6958 20.7144C27.7752 20.8214 27.8327 20.9429 27.8651 21.0721C27.8975 21.2013 27.9041 21.3356 27.8846 21.4674C27.8651 21.5991 27.8198 21.7257 27.7514 21.84Z" fill="black"/>
</svg>
