<svg width="41" height="40" viewBox="0 0 41 40" fill="none" xmlns="http://www.w3.org/2000/svg">
<path d="M7.16675 35V18.6529L3.83341 21.1945L2.16675 18.972L7.16675 15.1666V10.2779H9.94466V13.0416L20.5001 4.99996L38.8334 19L37.1667 21.1804L33.8334 18.6529V35H7.16675ZM9.94466 32.222H19.1113V25.5554H21.8888V32.222H31.0555V16.5279L20.5001 8.48621L9.94466 16.5279V32.222ZM7.16675 8.33329C7.16675 7.01857 7.62966 5.90288 8.5555 4.98621C9.48161 4.06954 10.5927 3.61121 11.8888 3.61121C12.4399 3.61121 12.9017 3.41899 13.2742 3.03454C13.647 2.65038 13.8334 2.1944 13.8334 1.66663H16.6113C16.6113 2.96301 16.1522 4.07413 15.2338 4.99996C14.3158 5.92579 13.2008 6.38871 11.8888 6.38871C11.3611 6.38871 10.9051 6.5751 10.5209 6.94788C10.1367 7.32065 9.94466 7.78246 9.94466 8.33329H7.16675Z" fill="black"/>
</svg>
