<svg width="31" height="18" viewBox="0 0 31 18" fill="none" xmlns="http://www.w3.org/2000/svg">
<path d="M8.9165 13.4543C10.0971 13.4543 11.1005 13.0412 11.9269 12.2148C12.7533 11.3884 13.1665 10.3849 13.1665 9.20435C13.1665 8.02379 12.7533 7.02032 11.9269 6.19393C11.1005 5.36754 10.0971 4.95435 8.9165 4.95435C7.73595 4.95435 6.73248 5.36754 5.90609 6.19393C5.0797 7.02032 4.6665 8.02379 4.6665 9.20435C4.6665 10.3849 5.0797 11.3884 5.90609 12.2148C6.73248 13.0412 7.73595 13.4543 8.9165 13.4543ZM8.9165 17.7043C6.55539 17.7043 4.54845 16.878 2.89567 15.2252C1.24289 13.5724 0.416504 11.5655 0.416504 9.20435C0.416504 6.84323 1.24289 4.83629 2.89567 3.18351C4.54845 1.53073 6.55539 0.704346 8.9165 0.704346C10.829 0.704346 12.4997 1.2474 13.9287 2.33351C15.3567 3.41962 16.354 4.76546 16.9207 6.37101H28.1832C28.3721 6.37101 28.5553 6.40643 28.7328 6.47726C28.9095 6.5481 29.0568 6.64254 29.1748 6.76059L30.5561 8.14185C30.6978 8.28351 30.804 8.44265 30.8748 8.61926C30.9457 8.79682 30.9811 8.98004 30.9811 9.16893C30.9811 9.35782 30.9518 9.5349 30.8933 9.70018C30.8338 9.86546 30.7332 10.0189 30.5915 10.1606L26.9082 13.8439C26.7665 13.9856 26.613 14.0918 26.4478 14.1627C26.2825 14.2335 26.1054 14.2689 25.9165 14.2689C25.7276 14.2689 25.5505 14.2392 25.3853 14.1797C25.22 14.1211 25.0665 14.021 24.9248 13.8793L23.0832 12.0377L21.2415 13.8793C21.0998 14.021 20.9464 14.1211 20.7811 14.1797C20.6158 14.2392 20.4387 14.2689 20.2498 14.2689C20.0609 14.2689 19.8839 14.2392 19.7186 14.1797C19.5533 14.1211 19.3998 14.021 19.2582 13.8793L17.4165 12.0377H16.9207C16.3304 13.7377 15.3033 15.1071 13.8394 16.146C12.3755 17.1849 10.7346 17.7043 8.9165 17.7043Z" fill="black"/>
</svg>
