<svg width="41" height="40" viewBox="0 0 41 40" fill="none" xmlns="http://www.w3.org/2000/svg">
<g clip-path="url(#clip0_1131_1292)">
<path d="M12.4165 23C11.5923 23 10.8864 22.706 10.2986 22.1179C9.71053 21.5301 9.4165 20.8242 9.4165 20C9.4165 19.1758 9.71053 18.4699 10.2986 17.8821C10.8864 17.294 11.5923 17 12.4165 17C13.2407 17 13.9466 17.294 14.5344 17.8821C15.1225 18.4699 15.4165 19.1758 15.4165 20C15.4165 20.8242 15.1225 21.5301 14.5344 22.1179C13.9466 22.706 13.2407 23 12.4165 23ZM12.4165 30C9.63873 30 7.27762 29.0278 5.33317 27.0833C3.38873 25.1389 2.4165 22.7778 2.4165 20C2.4165 17.2222 3.38873 14.8611 5.33317 12.9167C7.27762 10.9722 9.63873 10 12.4165 10C14.3701 10 16.0993 10.4676 17.604 11.4029C19.1087 12.3379 20.2962 13.6943 21.1665 15.4721H35.9444L40.7498 20.2779L33.6111 27.0279L30.0553 24.4167L26.4998 27.0279L23.2361 24.5279H21.1665C20.4073 26.139 19.28 27.4537 17.7844 28.4721C16.2891 29.4907 14.4998 30 12.4165 30ZM12.4165 27.2221C14.009 27.2221 15.4558 26.7082 16.7569 25.6804C18.0578 24.6526 18.9026 23.3425 19.2915 21.75H24.1944L26.4998 23.5696L30.0832 20.9721L33.3469 23.4583L36.7498 20.2221L34.7778 18.25H19.2915C18.9396 16.7314 18.1225 15.4397 16.8403 14.375C15.5578 13.3103 14.0832 12.7779 12.4165 12.7779C10.4165 12.7779 8.71275 13.4815 7.30525 14.8888C5.89803 16.2963 5.19442 18 5.19442 20C5.19442 22 5.89803 23.7038 7.30525 25.1113C8.71275 26.5185 10.4165 27.2221 12.4165 27.2221Z" fill="black"/>
</g>
<defs>
<clipPath id="clip0_1131_1292">
<rect width="40" height="40" fill="white" transform="translate(0.75)"/>
</clipPath>
</defs>
</svg>
