<svg width="15" height="21" viewBox="0 0 15 21" fill="none" xmlns="http://www.w3.org/2000/svg">
<path d="M7 10.5C7.55 10.5 8.021 10.304 8.413 9.912C8.80433 9.52067 9 9.05 9 8.5C9 7.95 8.80433 7.479 8.413 7.087C8.021 6.69567 7.55 6.5 7 6.5C6.45 6.5 5.97933 6.69567 5.588 7.087C5.196 7.479 5 7.95 5 8.5C5 9.05 5.196 9.52067 5.588 9.912C5.97933 10.304 6.45 10.5 7 10.5ZM7 17.85C9.03333 15.9833 10.5417 14.2873 11.525 12.762C12.5083 11.2373 13 9.88333 13 8.7C13 6.88333 12.4207 5.39567 11.262 4.237C10.104 3.079 8.68333 2.5 7 2.5C5.31667 2.5 3.89567 3.079 2.737 4.237C1.579 5.39567 1 6.88333 1 8.7C1 9.88333 1.49167 11.2373 2.475 12.762C3.45833 14.2873 4.96667 15.9833 7 17.85ZM7 20.5C4.31667 18.2167 2.31267 16.0957 0.988 14.137C-0.337333 12.179 -1 10.3667 -1 8.7C-1 6.2 -0.195667 4.20833 1.413 2.725C3.021 1.24167 4.88333 0.5 7 0.5C9.11667 0.5 10.979 1.24167 12.587 2.725C14.1957 4.20833 15 6.2 15 8.7C15 10.3667 14.3377 12.179 13.013 14.137C11.6877 16.0957 9.68333 18.2167 7 20.5Z" fill="#27563A"/>
</svg>
