<svg width="155" height="18" viewBox="0 0 155 18" fill="none" xmlns="http://www.w3.org/2000/svg">
<path d="M0 13.8113H9.12722V11.5597H3.03789V8.7044H8.422V6.51572H3.03789V3.67296H9.01872V1.49686H0V13.8113ZM15.2979 13.9874C18.2816 13.9874 19.7191 12.3648 19.9497 10.5157L17.0474 10.4151C16.9118 11.6101 16.2473 12.1384 15.3522 12.1384C14.0773 12.1384 13.4806 11.1572 13.4806 9.04403C13.4806 7.04403 14.0231 6.10063 15.2979 6.10063C16.3015 6.10063 16.8576 6.69182 16.9661 7.68554L19.8954 7.55975C19.6513 5.74843 18.1595 4.20126 15.2979 4.20126C12.1109 4.20126 10.3749 5.98742 10.3749 9.13208C10.3749 12.1006 11.9888 13.9874 15.2979 13.9874ZM28.2225 9.09434C28.2225 11.1824 27.5444 12.1509 26.1068 12.1509C24.8049 12.1509 24.0319 11.0818 24.0319 9.09434C24.0319 7.10692 24.71 6.11321 26.1611 6.11321C27.463 6.11321 28.2225 7.1195 28.2225 9.09434ZM31.2468 9.06918C31.2468 6.20126 29.7686 4.20126 26.134 4.20126C22.6621 4.20126 20.994 6.22642 20.994 9.06918C20.994 12.0377 22.6892 13.9874 26.0797 13.9874C29.5516 13.9874 31.2468 12.0503 31.2468 9.06918ZM41.9744 13.8113H44.958V1.49686H41.9744V6.32704H36.4682V1.49686H33.3761V13.8113H36.4682V8.65409H41.9744V13.8113ZM57.2994 12.0503H56.5942C56.0381 12.0503 55.8754 11.7987 55.8754 11.3585V7.6478C55.8754 5.39623 54.587 4.20126 51.7119 4.20126C48.891 4.20126 47.5212 5.37107 47.3449 7.06918L50.0844 7.22013C50.0844 6.33962 50.5998 5.84906 51.5491 5.84906C52.4578 5.84906 52.9867 6.25157 52.9867 7.33333V8.12579H51.9831C48.6333 8.12579 46.9516 8.96855 46.9516 11.1698C46.9516 12.5912 47.9688 13.9874 50.2336 13.9874C51.6169 13.9874 52.7561 13.4465 53.2308 12.239C53.2579 13.3836 54.2615 13.9874 55.6991 13.9874C56.3501 13.9874 56.6484 13.9748 57.2994 13.912V12.0503ZM51.2643 12.2264C50.2879 12.2264 49.8403 11.6101 49.8403 10.9182C49.8403 9.86163 50.7218 9.53459 51.6983 9.53459H52.9867V10.239C52.9867 11.522 52.2679 12.2264 51.2643 12.2264ZM64.5144 13.8113L68.0405 4.37736H65.1247L63.5108 9.40881L62.8191 11.6855L62.1139 9.40881L60.378 4.37736H57.3943L61.0425 13.8113H64.5144ZM73.5331 13.9874C76.6659 13.9874 77.656 12.6164 78.0357 11.0818L75.2148 10.9182C75.0521 11.8365 74.5503 12.2264 73.6281 12.2264C72.204 12.2264 71.7429 11.044 71.7429 9.84906V9.59749H78.1849C78.1849 9.59749 78.2256 9.19497 78.2256 8.77987C78.2256 6.15094 77.0592 4.20126 73.5467 4.20126C70.8343 4.20126 68.5965 5.35849 68.5965 9.04403C68.5965 12.3648 70.3596 13.9874 73.5331 13.9874ZM73.4924 5.84906C74.5231 5.84906 75.1606 6.33962 75.1606 7.98742V8.01258H71.7429C71.7972 6.33962 72.5295 5.84906 73.4924 5.84906ZM86.6747 13.8113H89.6854V7.55975C89.6854 5.79874 88.9667 4.20126 86.4035 4.20126C84.8031 4.20126 83.6639 4.91824 83.1621 6.31447C83.1214 5.57233 83.0265 4.64151 82.9994 4.37736H80.1514C80.1785 4.90566 80.2192 5.58491 80.2192 6.55346V13.8113H83.1893V8.80503C83.1893 7.25786 83.8809 6.28931 85.0879 6.28931C86.2678 6.28931 86.6747 6.95598 86.6747 8.27673V13.8113ZM100.603 9.27044H102.461L105.39 13.8113H108.808L105.431 8.96855C107.058 8.49057 108.13 7.37107 108.13 5.27044C108.13 2.9434 106.475 1.49686 103.098 1.49686H97.565V13.8113H100.603V9.27044ZM105.024 5.34591C105.024 6.37736 104.36 7.06918 102.813 7.06918H100.603V3.68553H102.773C104.237 3.68553 105.024 4.22642 105.024 5.34591ZM114.992 13.9874C118.125 13.9874 119.115 12.6164 119.495 11.0818L116.687 10.9182C116.511 11.8365 116.023 12.2264 115.087 12.2264C113.663 12.2264 113.215 11.044 113.215 9.84906V9.59749H119.644C119.644 9.59749 119.685 9.19497 119.685 8.77987C119.685 6.15094 118.532 4.20126 115.019 4.20126C112.307 4.20126 110.056 5.35849 110.056 9.04403C110.056 12.3648 111.832 13.9874 114.992 13.9874ZM114.965 5.84906C115.982 5.84906 116.633 6.33962 116.633 7.98742V8.01258H113.215C113.27 6.33962 113.989 5.84906 114.965 5.84906ZM131.267 12.0503H130.561C130.019 12.0503 129.842 11.7987 129.842 11.3585V7.6478C129.842 5.39623 128.554 4.20126 125.693 4.20126C122.858 4.20126 121.488 5.37107 121.326 7.06918L124.052 7.22013C124.052 6.33962 124.567 5.84906 125.516 5.84906C126.425 5.84906 126.954 6.25157 126.954 7.33333V8.12579H125.95C122.614 8.12579 120.919 8.96855 120.919 11.1698C120.919 12.5912 121.949 13.9874 124.201 13.9874C125.598 13.9874 126.737 13.4465 127.211 12.239C127.225 13.3836 128.229 13.9874 129.68 13.9874C130.317 13.9874 130.629 13.9748 131.267 13.912V12.0503ZM125.231 12.2264C124.269 12.2264 123.807 11.6101 123.807 10.9182C123.807 9.86163 124.703 9.53459 125.665 9.53459H126.954V10.239C126.954 11.522 126.235 12.2264 125.231 12.2264ZM132.731 13.8113H135.688V0H132.731V13.8113ZM137.247 6.36478H138.604V11.3082C138.604 13.0566 139.566 13.9874 141.289 13.9874C142.36 13.9874 142.943 13.912 143.554 13.8868V11.6855H142.604C141.831 11.6855 141.574 11.4717 141.574 10.805V6.36478H143.513V4.37736H141.574V1.48428H138.604V4.37736H137.247V6.36478ZM146.578 18C148.572 18 149.765 17.8491 150.633 15.6226L155 4.37736H152.057L150.66 8.7044C150.24 9.98742 149.738 11.3082 149.738 11.3082C149.738 11.3082 149.29 9.97484 148.856 8.77987L147.243 4.37736H144.313L148.287 14.0377L147.88 15.0818C147.677 15.6478 147.31 15.8365 146.578 15.8365H145.086V18H146.578Z" fill="white"/>
</svg>
