<svg width="311" height="42" viewBox="0 0 311 42" fill="none" xmlns="http://www.w3.org/2000/svg">
<path d="M13.2714 28.5152V31.0606L29.3776 31.1212V11.2424L13.2714 11.303V13.8485H15.9853V17.4848H16.3196V13.8485H26.8407V28.5152H16.3392V25.7273H16.9292V19.303H18.9351V25.7273H20.469V19.303H22.1209V25.7273H23.5369V17.9697C23.5369 17.6061 23.4189 17.4848 23.0649 17.4848H16.3196H15.9853H15.1593V25.7273H15.9853V28.5152H13.2714Z" fill="#27563A"/>
<path fill-rule="evenodd" clip-rule="evenodd" d="M1 41V1H41V41H1ZM3.83186 3.90909V38.3333H38.1681L38.2271 3.90909H3.83186Z" fill="#27563A"/>
<path d="M23.0649 17.4848H15.1593M23.0649 17.4848C23.4189 17.4848 23.5369 17.6061 23.5369 17.9697V25.7273H22.1209V19.303H20.469V25.7273H18.9351V19.303H16.9292V25.7273H16.3392V28.5152H26.8407V13.8485H16.3196V17.4848M23.0649 17.4848H16.3196M16.3196 17.4848H15.9853M15.9853 17.4848V13.8485H13.2714V11.303L29.3776 11.2424V31.1212L13.2714 31.0606V28.5152H15.9853V25.7273H15.1593V17.4848M15.9853 17.4848H15.1593M1 41V1H41V41H1ZM3.83186 38.3333V3.90909H38.2271L38.1681 38.3333H3.83186Z" stroke="#27563A"/>
<path d="M56.3 29H53.28V17.24H49.4V14.72H60.18V17.24H56.3V29ZM66.822 14.72C68.0887 14.72 69.1487 14.84 70.002 15.08C70.8687 15.3067 71.5154 15.6867 71.942 16.22C72.382 16.74 72.602 17.4467 72.602 18.34C72.602 18.8733 72.5154 19.36 72.342 19.8C72.1687 20.24 71.9154 20.6 71.582 20.88C71.262 21.16 70.8687 21.34 70.402 21.42V21.52C70.882 21.6133 71.3154 21.78 71.702 22.02C72.0887 22.26 72.3954 22.6067 72.622 23.06C72.8487 23.5133 72.962 24.1133 72.962 24.86C72.962 25.7267 72.7487 26.4733 72.322 27.1C71.9087 27.7133 71.3087 28.1867 70.522 28.52C69.7354 28.84 68.802 29 67.722 29H62.382V14.72H66.822ZM67.162 20.38C68.042 20.38 68.6487 20.24 68.982 19.96C69.3287 19.68 69.502 19.2733 69.502 18.74C69.502 18.1933 69.302 17.8 68.902 17.56C68.502 17.32 67.8687 17.2 67.002 17.2H65.402V20.38H67.162ZM65.402 22.78V26.5H67.382C68.2887 26.5 68.922 26.3267 69.282 25.98C69.642 25.62 69.822 25.1467 69.822 24.56C69.822 24.2 69.742 23.8867 69.582 23.62C69.4354 23.3533 69.1754 23.1467 68.802 23C68.4287 22.8533 67.922 22.78 67.282 22.78H65.402ZM88.7795 21.84C88.7795 22.9467 88.6395 23.9533 88.3595 24.86C88.0929 25.7533 87.6795 26.5267 87.1195 27.18C86.5729 27.8333 85.8662 28.3333 84.9995 28.68C84.1462 29.0267 83.1395 29.2 81.9795 29.2C80.8195 29.2 79.8062 29.0267 78.9395 28.68C78.0862 28.32 77.3795 27.82 76.8195 27.18C76.2729 26.5267 75.8595 25.7467 75.5795 24.84C75.3129 23.9333 75.1795 22.9267 75.1795 21.82C75.1795 20.34 75.4195 19.0533 75.8995 17.96C76.3929 16.8667 77.1395 16.02 78.1395 15.42C79.1529 14.8067 80.4395 14.5 81.9995 14.5C83.5462 14.5 84.8195 14.8067 85.8195 15.42C86.8195 16.02 87.5595 16.8733 88.0395 17.98C88.5329 19.0733 88.7795 20.36 88.7795 21.84ZM78.3595 21.84C78.3595 22.84 78.4862 23.7 78.7395 24.42C78.9929 25.14 79.3862 25.6933 79.9195 26.08C80.4529 26.4667 81.1395 26.66 81.9795 26.66C82.8462 26.66 83.5395 26.4667 84.0595 26.08C84.5929 25.6933 84.9795 25.14 85.2195 24.42C85.4729 23.7 85.5995 22.84 85.5995 21.84C85.5995 20.3333 85.3195 19.1533 84.7595 18.3C84.1995 17.4467 83.2795 17.02 81.9995 17.02C81.1462 17.02 80.4529 17.2133 79.9195 17.6C79.3862 17.9867 78.9929 18.54 78.7395 19.26C78.4862 19.98 78.3595 20.84 78.3595 21.84ZM103.238 10.02C103.171 10.7133 102.978 11.3267 102.658 11.86C102.338 12.38 101.838 12.7867 101.158 13.08C100.478 13.3733 99.5642 13.52 98.4175 13.52C97.2442 13.52 96.3242 13.38 95.6575 13.1C95.0042 12.8067 94.5375 12.4 94.2575 11.88C93.9775 11.36 93.8108 10.74 93.7575 10.02H96.4175C96.4842 10.7533 96.6708 11.24 96.9775 11.48C97.2842 11.72 97.7842 11.84 98.4775 11.84C99.0508 11.84 99.5175 11.7133 99.8775 11.46C100.251 11.1933 100.471 10.7133 100.538 10.02H103.238ZM91.7375 14.72H94.4575V21.62C94.4575 21.9533 94.4508 22.3267 94.4375 22.74C94.4242 23.1533 94.4108 23.56 94.3975 23.96C94.3842 24.3467 94.3708 24.6867 94.3575 24.98C94.3442 25.26 94.3308 25.4533 94.3175 25.56H94.3775L100.978 14.72H104.598V29H101.898V22.14C101.898 21.78 101.904 21.3867 101.918 20.96C101.931 20.52 101.944 20.1 101.958 19.7C101.984 19.3 102.004 18.9533 102.018 18.66C102.044 18.3533 102.064 18.1533 102.078 18.06H101.998L95.3775 29H91.7375V14.72ZM123.338 29H119.898L114.718 21.76V29H111.698V14.72H114.718V21.64L119.838 14.72H123.058L117.858 21.58L123.338 29ZM129.576 14.72C130.843 14.72 131.903 14.84 132.756 15.08C133.623 15.3067 134.269 15.6867 134.696 16.22C135.136 16.74 135.356 17.4467 135.356 18.34C135.356 18.8733 135.269 19.36 135.096 19.8C134.923 20.24 134.669 20.6 134.336 20.88C134.016 21.16 133.623 21.34 133.156 21.42V21.52C133.636 21.6133 134.069 21.78 134.456 22.02C134.843 22.26 135.149 22.6067 135.376 23.06C135.603 23.5133 135.716 24.1133 135.716 24.86C135.716 25.7267 135.503 26.4733 135.076 27.1C134.663 27.7133 134.063 28.1867 133.276 28.52C132.489 28.84 131.556 29 130.476 29H125.136V14.72H129.576ZM129.916 20.38C130.796 20.38 131.403 20.24 131.736 19.96C132.083 19.68 132.256 19.2733 132.256 18.74C132.256 18.1933 132.056 17.8 131.656 17.56C131.256 17.32 130.623 17.2 129.756 17.2H128.156V20.38H129.916ZM128.156 22.78V26.5H130.136C131.043 26.5 131.676 26.3267 132.036 25.98C132.396 25.62 132.576 25.1467 132.576 24.56C132.576 24.2 132.496 23.8867 132.336 23.62C132.189 23.3533 131.929 23.1467 131.556 23C131.183 22.8533 130.676 22.78 130.036 22.78H128.156ZM147.313 29L146.273 25.6H141.073L140.033 29H136.773L141.813 14.66H145.513L150.573 29H147.313ZM144.513 19.74C144.447 19.5133 144.36 19.2267 144.253 18.88C144.147 18.5333 144.04 18.18 143.933 17.82C143.827 17.46 143.74 17.1467 143.673 16.88C143.607 17.1467 143.513 17.48 143.393 17.88C143.287 18.2667 143.18 18.64 143.073 19C142.98 19.3467 142.907 19.5933 142.853 19.74L141.833 23.06H145.553L144.513 19.74ZM163.562 14.72V26.48H165.462V33.16H162.542V29H153.602V33.16H150.682V26.48H151.782C152.155 25.7333 152.515 24.9467 152.862 24.12C153.209 23.2933 153.529 22.4067 153.822 21.46C154.129 20.5133 154.402 19.4867 154.642 18.38C154.882 17.26 155.082 16.04 155.242 14.72H163.562ZM157.642 17.24C157.549 17.9333 157.415 18.6733 157.242 19.46C157.069 20.2333 156.862 21.0267 156.622 21.84C156.395 22.6533 156.142 23.4533 155.862 24.24C155.582 25.0267 155.282 25.7733 154.962 26.48H160.542V17.24H157.642ZM172.215 14.72C174.055 14.72 175.395 15.12 176.235 15.92C177.089 16.7067 177.515 17.7933 177.515 19.18C177.515 19.8067 177.422 20.4067 177.235 20.98C177.049 21.54 176.735 22.0467 176.295 22.5C175.869 22.94 175.302 23.2867 174.595 23.54C173.889 23.7933 173.015 23.92 171.975 23.92H170.675V29H167.655V14.72H172.215ZM172.055 17.2H170.675V21.44H171.675C172.249 21.44 172.742 21.3667 173.155 21.22C173.569 21.0733 173.889 20.84 174.115 20.52C174.342 20.2 174.455 19.7867 174.455 19.28C174.455 18.5733 174.262 18.0533 173.875 17.72C173.489 17.3733 172.882 17.2 172.055 17.2ZM187.958 29L186.918 25.6H181.718L180.678 29H177.418L182.458 14.66H186.158L191.218 29H187.958ZM185.158 19.74C185.091 19.5133 185.005 19.2267 184.898 18.88C184.791 18.5333 184.685 18.18 184.578 17.82C184.471 17.46 184.385 17.1467 184.318 16.88C184.251 17.1467 184.158 17.48 184.038 17.88C183.931 18.2667 183.825 18.64 183.718 19C183.625 19.3467 183.551 19.5933 183.498 19.74L182.478 23.06H186.198L185.158 19.74ZM197.12 29H194.1V17.24H190.22V14.72H201V17.24H197.12V29ZM214.902 29H211.882V22.84H206.222V29H203.202V14.72H206.222V20.32H211.882V14.72H214.902V29ZM218.495 29V14.72H221.515V20.2H222.495C223.815 20.2 224.902 20.3867 225.755 20.76C226.609 21.1333 227.235 21.6467 227.635 22.3C228.049 22.9533 228.255 23.7 228.255 24.54C228.255 25.4733 228.049 26.2733 227.635 26.94C227.222 27.6067 226.582 28.12 225.715 28.48C224.862 28.8267 223.755 29 222.395 29H218.495ZM222.315 26.52C223.209 26.52 223.909 26.3733 224.415 26.08C224.935 25.7867 225.195 25.2733 225.195 24.54C225.195 24.0333 225.075 23.6467 224.835 23.38C224.609 23.1133 224.269 22.9333 223.815 22.84C223.362 22.7333 222.815 22.68 222.175 22.68H221.515V26.52H222.315ZM229.995 29V14.72H233.015V29H229.995ZM248.12 10.02C248.054 10.7133 247.86 11.3267 247.54 11.86C247.22 12.38 246.72 12.7867 246.04 13.08C245.36 13.3733 244.447 13.52 243.3 13.52C242.127 13.52 241.207 13.38 240.54 13.1C239.887 12.8067 239.42 12.4 239.14 11.88C238.86 11.36 238.694 10.74 238.64 10.02H241.3C241.367 10.7533 241.554 11.24 241.86 11.48C242.167 11.72 242.667 11.84 243.36 11.84C243.934 11.84 244.4 11.7133 244.76 11.46C245.134 11.1933 245.354 10.7133 245.42 10.02H248.12ZM236.62 14.72H239.34V21.62C239.34 21.9533 239.334 22.3267 239.32 22.74C239.307 23.1533 239.294 23.56 239.28 23.96C239.267 24.3467 239.254 24.6867 239.24 24.98C239.227 25.26 239.214 25.4533 239.2 25.56H239.26L245.86 14.72H249.48V29H246.78V22.14C246.78 21.78 246.787 21.3867 246.8 20.96C246.814 20.52 246.827 20.1 246.84 19.7C246.867 19.3 246.887 18.9533 246.9 18.66C246.927 18.3533 246.947 18.1533 246.96 18.06H246.88L240.26 29H236.62V14.72ZM262.621 29L259.181 17.8H259.101C259.115 18.0667 259.135 18.4667 259.161 19C259.188 19.5333 259.215 20.1067 259.241 20.72C259.268 21.32 259.281 21.8667 259.281 22.36V29H256.581V14.72H260.701L264.081 25.64H264.141L267.721 14.72H271.841V29H269.021V22.24C269.021 21.7867 269.028 21.2667 269.041 20.68C269.068 20.0933 269.088 19.54 269.101 19.02C269.128 18.4867 269.148 18.0867 269.161 17.82H269.081L265.401 29H262.621ZM283.668 29H275.448V14.72H283.668V17.2H278.468V20.34H283.308V22.82H278.468V26.5H283.668V29ZM292.14 29H289.12V17.24H285.24V14.72H296.02V17.24H292.14V29ZM302.782 14.72C304.622 14.72 305.962 15.12 306.802 15.92C307.655 16.7067 308.082 17.7933 308.082 19.18C308.082 19.8067 307.989 20.4067 307.802 20.98C307.615 21.54 307.302 22.0467 306.862 22.5C306.435 22.94 305.869 23.2867 305.162 23.54C304.455 23.7933 303.582 23.92 302.542 23.92H301.242V29H298.222V14.72H302.782ZM302.622 17.2H301.242V21.44H302.242C302.815 21.44 303.309 21.3667 303.722 21.22C304.135 21.0733 304.455 20.84 304.682 20.52C304.909 20.2 305.022 19.7867 305.022 19.28C305.022 18.5733 304.829 18.0533 304.442 17.72C304.055 17.3733 303.449 17.2 302.622 17.2Z" fill="#27563A"/>
</svg>
