<svg width="201" height="37" viewBox="0 0 201 37" fill="none" xmlns="http://www.w3.org/2000/svg">
<g filter="url(#filter0_d_679_504)">
<path d="M20.279 0.230864L4 13.4263L5.40402 15.2292L6.95982 13.9633V27.8492C6.95982 28.1544 7.07976 28.4471 7.29325 28.6629C7.50674 28.8788 7.79629 29 8.09821 29H33.9018C34.2037 29 34.4933 28.8788 34.7068 28.6629C34.9202 28.4471 35.0402 28.1544 35.0402 27.8492V13.9633L36.596 15.2292L38 13.4263L21.721 0.230864C21.5099 0.080633 21.2581 0 21 0C20.7419 0 20.4901 0.080633 20.279 0.230864ZM26.3125 16.0347C26.3164 17.2655 25.9049 18.4608 25.146 19.4232C24.3871 20.3856 23.3261 21.0576 22.1384 21.3282V24.0134H19.8616V21.3282C18.6739 21.0576 17.6129 20.3856 16.854 19.4232C16.0951 18.4608 15.6836 17.2655 15.6875 16.0347C15.6875 13.3496 19.4442 9.32191 20.1652 8.55473C20.3948 8.34716 20.692 8.2324 21 8.2324C21.308 8.2324 21.6052 8.34716 21.8348 8.55473C22.5558 9.32191 26.3125 13.3496 26.3125 16.0347Z" fill="#27563A"/>
</g>
<path d="M46 19.8113H55.1272V17.5597H49.0379V14.7044H54.422V12.5157H49.0379V9.67296H55.0187V7.49686H46V19.8113ZM61.2979 19.9874C64.2816 19.9874 65.7191 18.3648 65.9497 16.5157L63.0474 16.4151C62.9118 17.6101 62.2473 18.1384 61.3522 18.1384C60.0773 18.1384 59.4806 17.1572 59.4806 15.044C59.4806 13.044 60.0231 12.1006 61.2979 12.1006C62.3015 12.1006 62.8576 12.6918 62.9661 13.6855L65.8954 13.5597C65.6513 11.7484 64.1595 10.2013 61.2979 10.2013C58.1109 10.2013 56.3749 11.9874 56.3749 15.1321C56.3749 18.1006 57.9888 19.9874 61.2979 19.9874ZM74.2225 15.0943C74.2225 17.1824 73.5444 18.1509 72.1068 18.1509C70.8049 18.1509 70.0319 17.0818 70.0319 15.0943C70.0319 13.1069 70.7099 12.1132 72.1611 12.1132C73.463 12.1132 74.2225 13.1195 74.2225 15.0943ZM77.2468 15.0692C77.2468 12.2013 75.7686 10.2013 72.134 10.2013C68.6621 10.2013 66.994 12.2264 66.994 15.0692C66.994 18.0377 68.6892 19.9874 72.0797 19.9874C75.5516 19.9874 77.2468 18.0503 77.2468 15.0692ZM87.9744 19.8113H90.958V7.49686H87.9744V12.327H82.4682V7.49686H79.3761V19.8113H82.4682V14.6541H87.9744V19.8113ZM103.299 18.0503H102.594C102.038 18.0503 101.875 17.7987 101.875 17.3585V13.6478C101.875 11.3962 100.587 10.2013 97.7119 10.2013C94.891 10.2013 93.5212 11.3711 93.3449 13.0692L96.0844 13.2201C96.0844 12.3396 96.5998 11.8491 97.5491 11.8491C98.4578 11.8491 98.9867 12.2516 98.9867 13.3333V14.1258H97.9831C94.6333 14.1258 92.9516 14.9686 92.9516 17.1698C92.9516 18.5912 93.9688 19.9874 96.2336 19.9874C97.6169 19.9874 98.7561 19.4465 99.2308 18.239C99.2579 19.3836 100.262 19.9874 101.699 19.9874C102.35 19.9874 102.648 19.9748 103.299 19.912V18.0503ZM97.2643 18.2264C96.2879 18.2264 95.8403 17.6101 95.8403 16.9182C95.8403 15.8616 96.7218 15.5346 97.6983 15.5346H98.9867V16.239C98.9867 17.522 98.2679 18.2264 97.2643 18.2264ZM110.514 19.8113L114.041 10.3774H111.125L109.511 15.4088L108.819 17.6855L108.114 15.4088L106.378 10.3774H103.394L107.043 19.8113H110.514ZM119.533 19.9874C122.666 19.9874 123.656 18.6164 124.036 17.0818L121.215 16.9182C121.052 17.8365 120.55 18.2264 119.628 18.2264C118.204 18.2264 117.743 17.044 117.743 15.8491V15.5975H124.185C124.185 15.5975 124.226 15.195 124.226 14.7799C124.226 12.1509 123.059 10.2013 119.547 10.2013C116.834 10.2013 114.597 11.3585 114.597 15.044C114.597 18.3648 116.36 19.9874 119.533 19.9874ZM119.492 11.8491C120.523 11.8491 121.161 12.3396 121.161 13.9874V14.0126H117.743C117.797 12.3396 118.53 11.8491 119.492 11.8491ZM132.675 19.8113H135.685V13.5597C135.685 11.7987 134.967 10.2013 132.403 10.2013C130.803 10.2013 129.664 10.9182 129.162 12.3145C129.121 11.5723 129.027 10.6415 128.999 10.3774H126.151C126.178 10.9057 126.219 11.5849 126.219 12.5535V19.8113H129.189V14.805C129.189 13.2579 129.881 12.2893 131.088 12.2893C132.268 12.2893 132.675 12.956 132.675 14.2767V19.8113ZM146.603 15.2704H148.461L151.39 19.8113H154.808L151.431 14.9686C153.058 14.4906 154.13 13.3711 154.13 11.2704C154.13 8.9434 152.475 7.49686 149.098 7.49686H143.565V19.8113H146.603V15.2704ZM151.024 11.3459C151.024 12.3774 150.36 13.0692 148.813 13.0692H146.603V9.68553H148.773C150.237 9.68553 151.024 10.2264 151.024 11.3459ZM160.992 19.9874C164.125 19.9874 165.115 18.6164 165.495 17.0818L162.687 16.9182C162.511 17.8365 162.023 18.2264 161.087 18.2264C159.663 18.2264 159.215 17.044 159.215 15.8491V15.5975H165.644C165.644 15.5975 165.685 15.195 165.685 14.7799C165.685 12.1509 164.532 10.2013 161.019 10.2013C158.307 10.2013 156.056 11.3585 156.056 15.044C156.056 18.3648 157.832 19.9874 160.992 19.9874ZM160.965 11.8491C161.982 11.8491 162.633 12.3396 162.633 13.9874V14.0126H159.215C159.27 12.3396 159.989 11.8491 160.965 11.8491ZM177.267 18.0503H176.561C176.019 18.0503 175.842 17.7987 175.842 17.3585V13.6478C175.842 11.3962 174.554 10.2013 171.693 10.2013C168.858 10.2013 167.488 11.3711 167.326 13.0692L170.052 13.2201C170.052 12.3396 170.567 11.8491 171.516 11.8491C172.425 11.8491 172.954 12.2516 172.954 13.3333V14.1258H171.95C168.614 14.1258 166.919 14.9686 166.919 17.1698C166.919 18.5912 167.949 19.9874 170.201 19.9874C171.598 19.9874 172.737 19.4465 173.211 18.239C173.225 19.3836 174.229 19.9874 175.68 19.9874C176.317 19.9874 176.629 19.9748 177.267 19.912V18.0503ZM171.231 18.2264C170.269 18.2264 169.807 17.6101 169.807 16.9182C169.807 15.8616 170.703 15.5346 171.665 15.5346H172.954V16.239C172.954 17.522 172.235 18.2264 171.231 18.2264ZM178.731 19.8113H181.688V6H178.731V19.8113ZM183.247 12.3648H184.604V17.3082C184.604 19.0566 185.566 19.9874 187.289 19.9874C188.36 19.9874 188.943 19.912 189.554 19.8868V17.6855H188.604C187.831 17.6855 187.574 17.4717 187.574 16.805V12.3648H189.513V10.3774H187.574V7.48428H184.604V10.3774H183.247V12.3648ZM192.578 24C194.572 24 195.765 23.8491 196.633 21.6226L201 10.3774H198.057L196.66 14.7044C196.24 15.9874 195.738 17.3082 195.738 17.3082C195.738 17.3082 195.29 15.9748 194.856 14.7799L193.243 10.3774H190.313L194.287 20.0377L193.88 21.0818C193.677 21.6478 193.31 21.8365 192.578 21.8365H191.086V24H192.578Z" fill="#27563A"/>
<defs>
<filter id="filter0_d_679_504" x="0" y="0" width="42" height="37" filterUnits="userSpaceOnUse" color-interpolation-filters="sRGB">
<feFlood flood-opacity="0" result="BackgroundImageFix"/>
<feColorMatrix in="SourceAlpha" type="matrix" values="0 0 0 0 0 0 0 0 0 0 0 0 0 0 0 0 0 0 127 0" result="hardAlpha"/>
<feOffset dy="4"/>
<feGaussianBlur stdDeviation="2"/>
<feComposite in2="hardAlpha" operator="out"/>
<feColorMatrix type="matrix" values="0 0 0 0 0 0 0 0 0 0 0 0 0 0 0 0 0 0 0.25 0"/>
<feBlend mode="normal" in2="BackgroundImageFix" result="effect1_dropShadow_679_504"/>
<feBlend mode="normal" in="SourceGraphic" in2="effect1_dropShadow_679_504" result="shape"/>
</filter>
</defs>
</svg>
