<svg width="28" height="28" viewBox="0 0 28 28" fill="none" xmlns="http://www.w3.org/2000/svg">
<path d="M27.925 2.54248C27.925 2.54248 27.925 2.55498 27.925 2.56123L20.65 26.5537C20.5399 26.9434 20.3132 27.2901 20.0004 27.5473C19.6876 27.8044 19.3036 27.9598 18.9 27.9925C18.8425 27.9975 18.785 28 18.7275 28C18.3492 28.0012 17.9785 27.8941 17.6592 27.6914C17.3398 27.4888 17.085 27.199 16.925 26.8562L12.4612 17.4325C12.4172 17.3393 12.403 17.2347 12.4207 17.1331C12.4384 17.0315 12.487 16.9378 12.56 16.865L19.7175 9.70623C19.8971 9.51717 19.9958 9.26542 19.9924 9.00465C19.9891 8.74389 19.884 8.49475 19.6996 8.31035C19.5152 8.12595 19.2661 8.02088 19.0053 8.01754C18.7446 8.0142 18.4928 8.11286 18.3037 8.29248L11.135 15.45C11.0621 15.523 10.9685 15.5716 10.8669 15.5893C10.7653 15.607 10.6607 15.5928 10.5675 15.5487L1.19249 11.1075C0.824297 10.9388 0.51444 10.6646 0.302157 10.3197C0.089874 9.97483 -0.0152863 9.57469 -7.78085e-06 9.16998C0.0203523 8.75402 0.170941 8.35499 0.430469 8.02929C0.689996 7.70359 1.04533 7.4677 1.44624 7.35498L25.4387 0.0799791H25.4575C25.7991 -0.0159941 26.1601 -0.0193585 26.5034 0.0702307C26.8467 0.15982 27.1601 0.339137 27.4112 0.589785C27.6624 0.840433 27.8423 1.15339 27.9326 1.49654C28.0229 1.83969 28.0203 2.20068 27.925 2.54248Z" fill="#27563A"/>
</svg>
