<svg width="41" height="40" viewBox="0 0 41 40" fill="none" xmlns="http://www.w3.org/2000/svg">
<path d="M14.6386 37.5L11.4719 32.1113L5.27775 30.8054L5.94442 24.6667L1.9165 20L5.94442 15.3612L5.27775 9.22208L11.4719 7.91667L14.6386 2.5L20.2498 5.02792L25.8611 2.5L29.0553 7.91667L35.2219 9.22208L34.5553 15.3612L38.5832 20L34.5553 24.6667L35.2219 30.8054L29.0553 32.1113L25.8611 37.5L20.2498 34.9721L14.6386 37.5ZM15.8611 33.8888L20.2498 32.0279L24.7498 33.8888L27.3886 29.7779L32.1665 28.5833L31.6944 23.7221L34.9719 20L31.6944 16.1946L32.1665 11.3333L27.3886 10.2221L24.6665 6.11125L20.2498 7.97208L15.7498 6.11125L13.1111 10.2221L8.33317 11.3333L8.80525 16.1946L5.52775 20L8.80525 23.7221L8.33317 28.6667L13.1111 29.7779L15.8611 33.8888ZM18.4719 25.6667L27.9165 16.2779L25.8886 14.3333L18.4719 21.6946L14.6386 17.7779L12.5832 19.8054L18.4719 25.6667Z" fill="black"/>
</svg>
