<svg width="41" height="40" viewBox="0 0 41 40" fill="none" xmlns="http://www.w3.org/2000/svg">
<path d="M20.2916 33.8887C20.4214 33.8887 20.5648 33.8563 20.7221 33.7916C20.8796 33.7269 21.0046 33.6482 21.0971 33.5554L35.0137 19.6112C35.3657 19.2593 35.6273 18.8595 35.7987 18.412C35.9698 17.9645 36.0554 17.517 36.0554 17.0695C36.0554 16.6065 35.9698 16.1504 35.7987 15.7012C35.6273 15.2523 35.3657 14.8565 35.0137 14.5137L27.6529 7.15287C27.3101 6.80093 26.9143 6.53926 26.4654 6.36787C26.0162 6.19676 25.5601 6.11121 25.0971 6.11121C24.6496 6.11121 24.2021 6.19676 23.7546 6.36787C23.3071 6.53926 22.9073 6.80093 22.5554 7.15287L21.9029 7.80537L25.1804 11.125C25.5601 11.5138 25.875 11.9629 26.125 12.472C26.375 12.9815 26.5 13.5325 26.5 14.125C26.5 15.2175 26.0948 16.1643 25.2846 16.9654C24.4746 17.7662 23.5232 18.1666 22.4304 18.1666C21.7823 18.1666 21.2198 18.0648 20.7429 17.8612C20.2662 17.6573 19.8364 17.3625 19.4533 16.9766L16.375 13.9166L8.91664 21.375C8.79636 21.4952 8.71067 21.6227 8.65956 21.7575C8.60873 21.8925 8.58331 22.0369 8.58331 22.1908C8.58331 22.4988 8.68984 22.7616 8.90289 22.9791C9.11567 23.1966 9.37636 23.3054 9.68498 23.3054C9.83942 23.3054 9.98609 23.2684 10.125 23.1945C10.2639 23.1204 10.3796 23.037 10.4721 22.9445L16.1946 17.222L18.1387 19.1666L12.4583 24.8612C12.338 24.9815 12.2523 25.1134 12.2012 25.257C12.1504 25.4004 12.125 25.5462 12.125 25.6945C12.125 25.9907 12.2361 26.2498 12.4583 26.472C12.6805 26.6943 12.9398 26.8054 13.2362 26.8054C13.3843 26.8054 13.5278 26.773 13.6666 26.7083C13.8055 26.6436 13.9212 26.5648 14.0137 26.472L19.7362 20.7637L21.6804 22.7083L16 28.4029C15.898 28.4954 15.8171 28.6188 15.7571 28.7733C15.6968 28.9275 15.6666 29.0818 15.6666 29.2362C15.6666 29.5323 15.7778 29.7915 16 30.0137C16.2222 30.2359 16.4815 30.347 16.7779 30.347C16.9259 30.347 17.0625 30.3216 17.1875 30.2708C17.3125 30.22 17.4351 30.1343 17.5554 30.0137L23.2779 24.3054L25.2221 26.25L19.5 31.972C19.3797 32.0926 19.294 32.2245 19.2429 32.3679C19.1921 32.5115 19.1666 32.6482 19.1666 32.7779C19.1666 33.1112 19.2708 33.3797 19.4791 33.5833C19.6875 33.7869 19.9583 33.8887 20.2916 33.8887ZM20.2796 36.6666C19.3246 36.6666 18.4744 36.3263 17.7291 35.6458C16.9839 34.9652 16.5418 34.1193 16.4029 33.1079C15.4584 32.9712 14.6668 32.5834 14.0279 31.9445C13.389 31.3057 13.0001 30.514 12.8612 29.5695C11.9168 29.4307 11.1321 29.0348 10.5071 28.382C9.88206 27.7293 9.50011 26.9445 9.36123 26.0279C8.324 25.889 7.47206 25.4584 6.80539 24.7362C6.13873 24.014 5.80539 23.1529 5.80539 22.1529C5.80539 21.6529 5.90248 21.1593 6.09664 20.672C6.29053 20.1851 6.56845 19.7573 6.93039 19.3887L16.375 9.95829L21.25 14.8333C21.4166 15.0091 21.605 15.1457 21.815 15.2429C22.0247 15.3401 22.2346 15.3887 22.4446 15.3887C22.7684 15.3887 23.0647 15.2568 23.3333 14.9929C23.6019 14.729 23.7362 14.4336 23.7362 14.1066C23.7362 13.9613 23.6968 13.8008 23.6179 13.625C23.5393 13.4491 23.4121 13.2779 23.2362 13.1112L17.2779 7.15287C16.9351 6.80093 16.5393 6.53926 16.0904 6.36787C15.6412 6.19676 15.1851 6.11121 14.7221 6.11121C14.2746 6.11121 13.8271 6.19676 13.3796 6.36787C12.9321 6.53926 12.5329 6.79954 12.1821 7.14871L5.99998 13.347C5.65748 13.6898 5.40748 14.0602 5.24998 14.4583C5.09248 14.8563 4.99525 15.2915 4.95831 15.7637C4.92136 16.2359 4.99081 16.7012 5.16664 17.1595C5.34248 17.6179 5.56928 18.0369 5.84706 18.4166L3.84706 20.4166C3.31928 19.7963 2.90261 19.0718 2.59706 18.2429C2.2915 17.4143 2.14803 16.574 2.16664 15.722C2.18525 14.9073 2.3565 14.1226 2.68039 13.3679C3.00456 12.6134 3.45831 11.9445 4.04164 11.3612L10.1946 5.20829C10.824 4.58801 11.5328 4.1251 12.3208 3.81954C13.1086 3.51398 13.9164 3.36121 14.7441 3.36121C15.5722 3.36121 16.3773 3.51398 17.1596 3.81954C17.9421 4.1251 18.6434 4.58801 19.2637 5.20829L19.9166 5.86121L20.5696 5.20829C21.199 4.58801 21.9078 4.1251 22.6958 3.81954C23.4836 3.51398 24.2914 3.36121 25.1191 3.36121C25.9472 3.36121 26.7523 3.51398 27.5346 3.81954C28.3171 4.1251 29.0184 4.58801 29.6387 5.20829L36.9583 12.5279C37.5786 13.1482 38.0462 13.8568 38.3612 14.6537C38.6759 15.4507 38.8333 16.2608 38.8333 17.0841C38.8333 17.9077 38.6759 18.7107 38.3612 19.4929C38.0462 20.2754 37.5786 20.9768 36.9583 21.597L23.0416 35.5C22.6714 35.8702 22.2475 36.1573 21.77 36.3612C21.2925 36.5648 20.7957 36.6666 20.2796 36.6666Z" fill="black"/>
</svg>
